<svg width="32" height="32" viewBox="0 0 32 32" fill="none" xmlns="http://www.w3.org/2000/svg">
<path d="M0.5 31.4961C17.5 31.2316 31.2316 17.5 31.4961 0.5H0.5V31.4961Z" fill="#FFE8E8"/>
<path d="M0.5 31.4961C17.5 31.2316 31.2316 17.5 31.4961 0.5H0.5V31.4961Z" stroke="#FF5B5B"/>
<path d="M7.665 19V7.624H11.201C12.097 7.624 12.9343 7.83733 13.713 8.264C14.5023 8.68 15.1317 9.29333 15.601 10.104C16.081 10.904 16.321 11.8533 16.321 12.952V13.672C16.321 14.696 16.1077 15.6133 15.681 16.424C15.2543 17.2347 14.657 17.8693 13.889 18.328C13.121 18.776 12.2463 19 11.265 19H7.665ZM11.217 17.32C12.081 17.32 12.7797 17.016 13.313 16.408C13.857 15.7893 14.129 14.8773 14.129 13.672V12.92C14.129 11.8533 13.8943 10.9893 13.425 10.328C12.9557 9.66667 12.2197 9.32533 11.217 9.304H9.825V17.32H11.217Z" fill="#FF5B5B"/>
</svg>
