<svg width="32" height="32" viewBox="0 0 32 32" fill="none" xmlns="http://www.w3.org/2000/svg">
<path d="M0.5 0.503888C17.5 0.768432 31.2316 14.5 31.4961 31.5H0.5V0.503888Z" fill="#EBF7F7"/>
<path d="M0.5 0.503888C17.5 0.768432 31.2316 14.5 31.4961 31.5H0.5V0.503888Z" stroke="#3CA29C"/>
<path d="M9.99688 18.904V23H7.83688V11.624H12.1249C12.9889 11.624 13.7355 11.784 14.3649 12.104C15.0049 12.4133 15.4955 12.8507 15.8369 13.416C16.1782 13.9813 16.3489 14.6267 16.3489 15.352C16.3489 16.44 15.9702 17.304 15.2129 17.944C14.4662 18.5733 13.4262 18.8933 12.0929 18.904H9.99688ZM12.1249 17.208C12.7755 17.208 13.2769 17.0533 13.6289 16.744C13.9809 16.424 14.1569 15.9653 14.1569 15.368C14.1569 14.728 13.9755 14.2267 13.6129 13.864C13.2609 13.4907 12.7702 13.304 12.1409 13.304H9.99688V17.208H12.1249Z" fill="#3CA29C"/>
</svg>
