<svg width="32" height="32" viewBox="0 0 32 32" fill="none" xmlns="http://www.w3.org/2000/svg">
<path d="M31.5 31.4961C14.5 31.2316 0.768432 17.5 0.503888 0.5H31.5V31.4961Z" fill="#FFF5E1"/>
<path d="M31.5 31.4961C14.5 31.2316 0.768432 17.5 0.503888 0.5H31.5V31.4961Z" stroke="#C38C15"/>
<path d="M25.4033 15.24C25.3819 15.7947 25.2273 16.3707 24.9392 16.968C24.6619 17.5547 24.1873 18.0667 23.5153 18.504C22.8539 18.9307 21.9686 19.1493 20.8593 19.16C19.9739 19.16 19.1793 18.9627 18.4753 18.568C17.7819 18.1733 17.2326 17.5707 16.8273 16.76C16.4219 15.9493 16.2193 14.9413 16.2193 13.736V12.856C16.2193 12.2053 16.3366 11.4747 16.5713 10.664C16.8059 9.84267 17.2646 9.10667 17.9473 8.456C18.6406 7.80533 19.6059 7.47467 20.8433 7.464C22.1659 7.464 23.2326 7.816 24.0433 8.52C24.8539 9.21333 25.3126 10.1893 25.4193 11.448H23.2593C23.2166 10.6693 22.9979 10.0933 22.6033 9.72C22.2086 9.34667 21.6219 9.16 20.8433 9.16C19.2219 9.16 18.4113 10.3547 18.4113 12.744V13.8C18.4113 15.0693 18.6086 15.9973 19.0033 16.584C19.3979 17.16 20.0166 17.448 20.8593 17.448C21.6166 17.448 22.1926 17.2667 22.5873 16.904C22.9819 16.5413 23.2006 15.9867 23.2433 15.24H25.4033Z" fill="#C38C15"/>
</svg>
