<svg width="42" height="42" viewBox="0 0 42 42" fill="none" xmlns="http://www.w3.org/2000/svg">
<circle cx="21" cy="21" r="21" fill="#ACF1F2"/>
<path d="M18.332 13.1836H13.832C13.4178 13.1836 13.082 13.5194 13.082 13.9336V18.4336C13.082 18.8478 13.4178 19.1836 13.832 19.1836H18.332C18.7462 19.1836 19.082 18.8478 19.082 18.4336V13.9336C19.082 13.5194 18.7462 13.1836 18.332 13.1836Z" stroke="#05A3A6" stroke-width="1.5" stroke-linecap="round" stroke-linejoin="round"/>
<path d="M18.332 22.1836H13.832C13.4178 22.1836 13.082 22.5194 13.082 22.9336V27.4336C13.082 27.8478 13.4178 28.1836 13.832 28.1836H18.332C18.7462 28.1836 19.082 27.8478 19.082 27.4336V22.9336C19.082 22.5194 18.7462 22.1836 18.332 22.1836Z" stroke="#05A3A6" stroke-width="1.5" stroke-linecap="round" stroke-linejoin="round"/>
<path d="M27.332 13.1836H22.832C22.4178 13.1836 22.082 13.5194 22.082 13.9336V18.4336C22.082 18.8478 22.4178 19.1836 22.832 19.1836H27.332C27.7462 19.1836 28.082 18.8478 28.082 18.4336V13.9336C28.082 13.5194 27.7462 13.1836 27.332 13.1836Z" stroke="#05A3A6" stroke-width="1.5" stroke-linecap="round" stroke-linejoin="round"/>
<path d="M22.082 22.1836V25.1836" stroke="#05A3A6" stroke-width="1.5" stroke-linecap="round" stroke-linejoin="round"/>
<path d="M22.082 28.1836H25.082V22.1836" stroke="#05A3A6" stroke-width="1.5" stroke-linecap="round" stroke-linejoin="round"/>
<path d="M25.082 23.6836H28.082" stroke="#05A3A6" stroke-width="1.5" stroke-linecap="round" stroke-linejoin="round"/>
<path d="M28.082 26.6836V28.1836" stroke="#05A3A6" stroke-width="1.5" stroke-linecap="round" stroke-linejoin="round"/>
</svg>
