<svg width="42" height="42" viewBox="0 0 42 42" fill="none" xmlns="http://www.w3.org/2000/svg">
<circle cx="21" cy="21" r="21" fill="#A3D1FF"/>
<path d="M28.082 12.4336H13.082C12.6678 12.4336 12.332 12.7694 12.332 13.1836V28.1836C12.332 28.5978 12.6678 28.9336 13.082 28.9336H28.082C28.4962 28.9336 28.832 28.5978 28.832 28.1836V13.1836C28.832 12.7694 28.4962 12.4336 28.082 12.4336Z" stroke="#0A66C2" stroke-width="1.5" stroke-linecap="round" stroke-linejoin="round"/>
<path d="M25.082 10.9336V13.9336" stroke="#0A66C2" stroke-width="1.5" stroke-linecap="round" stroke-linejoin="round"/>
<path d="M16.082 10.9336V13.9336" stroke="#0A66C2" stroke-width="1.5" stroke-linecap="round" stroke-linejoin="round"/>
<path d="M12.332 16.9336H28.832" stroke="#0A66C2" stroke-width="1.5" stroke-linecap="round" stroke-linejoin="round"/>
<path d="M17.207 20.6836H19.832L18.332 22.5586C18.5787 22.5586 18.8215 22.6194 19.039 22.7357C19.2565 22.8519 19.4421 23.02 19.5791 23.225C19.7162 23.4301 19.8005 23.6658 19.8248 23.9112C19.849 24.1567 19.8123 24.4043 19.718 24.6322C19.6237 24.8601 19.4747 25.0612 19.2841 25.2177C19.0935 25.3743 18.8672 25.4814 18.6253 25.5296C18.3835 25.5779 18.1334 25.5657 17.8974 25.4942C17.6613 25.4228 17.4465 25.2942 17.272 25.1199" stroke="#0A66C2" stroke-width="1.5" stroke-linecap="round" stroke-linejoin="round"/>
<path d="M22.082 21.8086L23.582 20.6836V25.5586" stroke="#0A66C2" stroke-width="1.5" stroke-linecap="round" stroke-linejoin="round"/>
</svg>
