<svg width="52" height="53" viewBox="0 0 52 53" fill="none" xmlns="http://www.w3.org/2000/svg">
<path d="M17.3307 34.7917L25.9974 26.125L34.6641 34.7917" stroke="#5A93B7" stroke-width="2" stroke-linecap="round" stroke-linejoin="round"/>
<path d="M26 26.125V45.625" stroke="#5A93B7" stroke-width="2" stroke-linecap="round" stroke-linejoin="round"/>
<path d="M7.82054 39.9686C5.7073 38.8165 4.0379 36.9935 3.07581 34.7873C2.11372 32.581 1.91374 30.1173 2.50742 27.7847C3.1011 25.4522 4.45464 23.3839 6.35441 21.906C8.25419 20.4282 10.592 19.6252 12.9989 19.6236H15.7289C16.3847 17.0869 17.607 14.732 19.304 12.7357C21.0009 10.7395 23.1284 9.15392 25.5263 8.09823C27.9243 7.04254 30.5303 6.54419 33.1486 6.64066C35.7669 6.73713 38.3292 7.4259 40.643 8.65519C42.9567 9.88448 44.9617 11.6223 46.5072 13.738C48.0526 15.8537 49.0984 18.2922 49.5657 20.8703C50.0331 23.4483 49.91 26.0987 49.2056 28.6223C48.5012 31.1459 47.2338 33.477 45.4989 35.4402" stroke="#5A93B7" stroke-width="2" stroke-linecap="round" stroke-linejoin="round"/>
<path d="M17.3307 34.7917L25.9974 26.125L34.6641 34.7917" stroke="#5A93B7" stroke-width="2" stroke-linecap="round" stroke-linejoin="round"/>
</svg>
