<svg width="42" height="42" viewBox="0 0 42 42" fill="none" xmlns="http://www.w3.org/2000/svg">
<circle cx="21" cy="21" r="21" fill="#ACF1F2"/>
<path d="M29.582 13.9375H11.582C11.1678 13.9375 10.832 14.2733 10.832 14.6875V16.9375C10.832 17.3517 11.1678 17.6875 11.582 17.6875H29.582C29.9962 17.6875 30.332 17.3517 30.332 16.9375V14.6875C30.332 14.2733 29.9962 13.9375 29.582 13.9375Z" stroke="#05A3A6" stroke-width="1.5" stroke-linecap="round" stroke-linejoin="round"/>
<path d="M28.832 17.6875V26.6875C28.832 26.8864 28.753 27.0772 28.6124 27.2178C28.4717 27.3585 28.2809 27.4375 28.082 27.4375H13.082C12.8831 27.4375 12.6924 27.3585 12.5517 27.2178C12.411 27.0772 12.332 26.8864 12.332 26.6875V17.6875" stroke="#05A3A6" stroke-width="1.5" stroke-linecap="round" stroke-linejoin="round"/>
<path d="M18.332 21.4375H22.832" stroke="#05A3A6" stroke-width="1.5" stroke-linecap="round" stroke-linejoin="round"/>
</svg>
