<svg width="42" height="42" viewBox="0 0 42 42" fill="none" xmlns="http://www.w3.org/2000/svg">
<circle cx="21" cy="21" r="21" fill="#F9D8FF"/>
<path d="M28.832 17.2482V28.1875C28.832 28.3864 28.753 28.5772 28.6124 28.7178C28.4717 28.8585 28.2809 28.9375 28.082 28.9375H13.082C12.8831 28.9375 12.6924 28.8585 12.5517 28.7178C12.411 28.5772 12.332 28.3864 12.332 28.1875V13.1875C12.332 12.9886 12.411 12.7978 12.5517 12.6572C12.6924 12.5165 12.8831 12.4375 13.082 12.4375H24.0214C24.1199 12.4375 24.2174 12.4569 24.3084 12.4946C24.3994 12.5323 24.4821 12.5875 24.5517 12.6572L28.6124 16.7178C28.682 16.7875 28.7372 16.8702 28.7749 16.9611C28.8126 17.0521 28.832 17.1497 28.832 17.2482Z" stroke="#E237FF" stroke-width="1.5" stroke-linecap="round" stroke-linejoin="round"/>
<path d="M20.583 25.9375C22.0328 25.9375 23.208 24.7622 23.208 23.3125C23.208 21.8628 22.0328 20.6875 20.583 20.6875C19.1333 20.6875 17.958 21.8628 17.958 23.3125C17.958 24.7622 19.1333 25.9375 20.583 25.9375Z" stroke="#E237FF" stroke-width="1.5" stroke-linecap="round" stroke-linejoin="round"/>
<path d="M23.582 17.6875H17.582V12.4375" stroke="#E237FF" stroke-width="1.5" stroke-linecap="round" stroke-linejoin="round"/>
</svg>
