<svg width="42" height="42" viewBox="0 0 42 42" fill="none" xmlns="http://www.w3.org/2000/svg">
<circle cx="21" cy="21" r="21" fill="#A3D1FF"/>
<path d="M18.332 25.1875C19.9889 25.1875 21.332 23.8444 21.332 22.1875C21.332 20.5306 19.9889 19.1875 18.332 19.1875C16.6752 19.1875 15.332 20.5306 15.332 22.1875C15.332 23.8444 16.6752 25.1875 18.332 25.1875Z" stroke="#0A66C2" stroke-width="1.5" stroke-linecap="round" stroke-linejoin="round"/>
<path d="M13.5873 28.1874C14.0134 27.2897 14.6854 26.5314 15.5253 26.0004C16.3651 25.4694 17.3384 25.1875 18.332 25.1875C19.3257 25.1875 20.2989 25.4694 21.1388 26.0004C21.9787 26.5314 22.6507 27.2897 23.0768 28.1874L28.832 28.1875C28.9305 28.1875 29.028 28.1681 29.119 28.1304C29.21 28.0927 29.2927 28.0375 29.3624 27.9678C29.432 27.8982 29.4872 27.8155 29.5249 27.7245C29.5626 27.6335 29.582 27.536 29.582 27.4375V13.9375C29.582 13.7386 29.503 13.5478 29.3624 13.4072C29.2217 13.2665 29.0309 13.1875 28.832 13.1875H12.332C12.1331 13.1875 11.9424 13.2665 11.8017 13.4072C11.661 13.5478 11.582 13.7386 11.582 13.9375V27.4376C11.582 27.5361 11.6014 27.6336 11.6391 27.7246C11.6768 27.8156 11.7321 27.8982 11.8017 27.9679C11.8714 28.0375 11.954 28.0928 12.045 28.1304C12.136 28.1681 12.2335 28.1875 12.332 28.1875L13.5873 28.1874Z" stroke="#0A66C2" stroke-width="1.5" stroke-linecap="round" stroke-linejoin="round"/>
<path d="M25.082 25.1875H26.582V16.1875H14.582V17.6875" stroke="#0A66C2" stroke-width="1.5" stroke-linecap="round" stroke-linejoin="round"/>
</svg>
