<svg width="29" height="43" viewBox="0 0 29 43" fill="none" xmlns="http://www.w3.org/2000/svg">
<path d="M7.17952 1.30151C7.08923 0.646933 7.64733 0.0863105 8.3023 0.17364L14.3678 0.982378C14.4556 0.994074 14.5444 0.994074 14.6322 0.982378L20.6977 0.17364C21.3527 0.0863105 21.9108 0.646933 21.8205 1.30151L20.0188 14.3634C20.0063 14.454 20.0063 14.546 20.0188 14.6366L21.8432 27.8634C21.9261 28.4643 21.4592 29 20.8526 29H8.1474C7.54079 29 7.07389 28.4643 7.15678 27.8634L8.98115 14.6366C8.99366 14.546 8.99366 14.454 8.98115 14.3634L7.17952 1.30151Z" fill="#D9D9D9"/>
<path d="M14.5 43L1.94263 28L27.0574 28L14.5 43Z" fill="#D9D9D9"/>
</svg>
