<svg width="106" height="85" viewBox="0 0 106 85" fill="none" xmlns="http://www.w3.org/2000/svg">
<path d="M104.385 33.5018C103.376 30.8887 101.305 28.5558 98.7827 26.8736C91.5026 22.313 80.4078 21.9883 72.9066 26.1112C68.8154 28.169 66.1266 32.2411 65.2897 36.4348C63.7719 43.3246 64.1639 51.5222 69.5442 56.6864C75.8179 62.1123 84.9488 63.311 93.0682 61.0821C93.454 61.009 94.6765 60.7053 95.5196 60.264L95.7571 60.1636C98.2789 59.1297 100.684 57.4463 102.479 55.1667C106.623 49.1892 106.907 40.233 104.385 33.5018ZM91.1659 48.9735C90.8794 50.2801 89.9886 51.6338 88.5838 52.1246C86.3473 53.0953 83.3216 52.8263 81.2497 51.6908C79.5119 50.4921 79.2883 48.4851 79.0646 46.586C78.895 42.8424 78.6211 38.8781 79.6841 35.4555C80.5171 33.3357 82.8153 32.7903 84.8935 32.6304C87.076 32.6304 89.2007 32.9589 90.549 34.6956C91.3883 35.9414 91.3368 37.5715 91.5026 39.0392C91.4436 42.1321 91.725 45.8212 91.1659 48.9735ZM24.7893 52.3453C22.9397 52.2337 20.8678 52.3936 19.0773 52.1767L19.1326 33.1138L19.2457 32.9552L24.7893 32.9019C24.8471 29.8078 24.9024 26.4893 24.7315 23.6692L3.61869 23.6109L0.141985 23.6704C0.0866991 26.5463 0.0866991 29.9094 0.141985 32.8448C2.04808 32.9031 3.83732 32.8448 5.68687 33.0147V51.4763L5.63285 52.235L0.0866991 52.3465C-0.0288997 55.3321 -0.0288997 58.3209 0.0866991 61.3065H24.788L24.7893 52.3453ZM86.9604 65.3749C84.6108 68.6909 81.6417 71.8941 78.3999 74.3857C78.2818 74.5556 77.9464 74.4911 77.8396 74.3349C76.4348 73.4684 74.9232 72.7593 73.5763 71.8941C75.3706 69.7781 77.1083 67.6608 78.4527 65.3167H76.71C75.3178 67.3335 73.8577 69.4496 72.0107 71.2359C69.5442 70.2603 67.3051 69.3925 64.7846 68.7355L64.5044 68.5285C64.8964 67.4315 65.6227 66.4013 65.8451 65.3142H64.3335L62.822 68.2484C59.5212 67.543 55.8786 67.1587 52.5175 66.9443C52.3479 66.4571 52.5703 65.7505 52.3479 65.3142H50.8916C50.776 65.9675 51.06 66.4596 50.7232 67.0013C47.2503 67.1587 43.8904 67.543 40.6449 68.2013L39.1271 65.3142C38.573 65.3142 37.9498 65.2101 37.5628 65.3725L38.96 68.5769L38.7929 68.7355C36.2825 69.4521 33.8143 70.3054 31.3997 71.2916L31.1773 71.1801C29.6054 69.4967 28.0926 67.6583 26.8587 65.8113C26.581 64.8828 25.4603 65.4258 24.8433 65.3167C26.1827 67.7091 27.9808 69.8239 29.77 71.9995C28.2585 72.8709 26.7519 73.8428 25.1763 74.5555C21.7501 71.9812 18.7634 68.8827 16.3293 65.3774C15.6559 65.2708 15.2123 65.3191 14.5351 65.3774C18.5684 71.5681 24.8433 76.9964 31.3972 80.2008C31.3972 80.2008 31.3972 80.1524 31.4575 80.1524C31.5052 80.1524 31.6171 80.2528 31.5052 80.3099C35.9331 82.4284 40.6412 83.9482 45.6219 84.6027C62.8195 86.8265 79.233 79.6082 88.7497 65.3774C88.1549 65.317 87.5554 65.3162 86.9604 65.3749ZM63.6086 70.2615L63.7732 70.1524C66.1881 70.6954 68.48 71.4565 70.6097 72.4854C68.8154 74.4899 66.5186 76.2315 64.3926 77.6967C63.106 78.4542 61.813 79.2773 60.4673 79.9243L58.0637 78.893L58.2283 78.5174C60.2487 75.8584 62.0417 73.1399 63.6086 70.2615ZM52.5703 68.6314C55.7655 68.6909 58.9595 69.0157 61.9236 69.7186L61.9826 69.8834C60.4171 72.8127 58.4519 75.6427 56.3272 78.298C55.3697 78.4095 54.4776 78.0339 53.5265 77.9757L52.569 77.8641C52.4597 74.6597 52.4007 71.8358 52.5703 68.6314ZM41.7645 69.6082C44.677 69.0653 47.7001 68.6314 50.8351 68.6314L50.8929 77.8182C49.7143 78.081 48.4264 78.081 47.3056 78.3599C45.0087 75.6923 43.1064 72.8127 41.4843 69.8239L41.7645 69.6082ZM32.7416 72.5437C34.9317 71.5086 37.2248 70.7437 39.5744 70.1512L39.8018 70.2082C41.4215 73.1957 43.4406 76.0171 45.456 78.8409C44.6783 79.2785 43.7208 79.5401 42.9393 79.9814C39.1514 78.1353 35.7047 75.6747 32.7429 72.7023V72.5437H32.7416ZM39.9702 81.8284C35.2646 80.6297 30.8921 78.567 26.86 75.7481V75.5795C28.2044 74.7725 29.5539 73.901 31.0051 73.2973C34.2004 76.4013 37.5025 78.7368 41.0872 80.9582C40.8083 81.2842 40.361 81.6115 39.9702 81.8284ZM60.7488 82.53C54.8131 83.787 48.2002 83.8353 42.2658 82.4259C42.1527 82.1557 42.546 82.0974 42.7131 81.9387C47.9225 78.6227 56.0407 78.6227 61.1433 82.2028C61.3092 82.53 60.8619 82.4259 60.7488 82.53ZM66.1278 81.0152L63.4955 81.8272C63.0456 81.6102 62.6561 81.2842 62.2603 80.9569L62.3734 80.7908C65.9594 78.7355 69.2062 76.2303 72.2884 73.244C73.8012 73.8403 75.2587 74.6597 76.6069 75.5782C73.467 78.0339 69.8244 79.6553 66.1278 81.0152ZM16.22 19.4855C17.6055 17.5939 19.1211 15.7984 20.756 14.1117C22.2072 12.7543 23.5567 11.4515 25.1273 10.4697C26.5848 11.392 28.2069 12.1606 29.6067 13.0258C27.8715 15.1332 26.0785 17.2603 24.7906 19.535C25.1801 19.7049 25.9113 19.6516 26.473 19.535C27.8715 17.5293 29.3792 15.5212 31.1785 13.7274C33.581 14.5989 35.9369 15.5187 38.4046 16.1732L38.622 16.3889L37.2273 19.535C37.8455 19.6516 38.2375 19.5945 38.8494 19.535C39.352 18.6177 39.7415 17.5888 40.3019 16.6604C43.555 17.3694 46.9726 17.7475 50.4456 17.8529C50.8904 18.2384 50.5561 19.0491 50.7245 19.535H52.2361C52.4007 19.002 52.1795 18.3971 52.4007 17.9136C55.6525 17.745 59.0676 17.419 62.2151 16.6579L62.4878 16.7149L64.0006 19.5326C64.5057 19.5326 65.1766 19.6491 65.5687 19.421L64.1652 16.2798L64.282 16.1707C66.8541 15.5187 69.2665 14.5419 71.7305 13.5663C73.472 15.3575 75.0916 17.4748 76.5529 19.5313C77.1661 19.5313 77.783 19.5908 78.2316 19.4198C77.5398 18.2074 76.7329 17.0626 75.8216 16.0009C75.0818 14.9609 74.2565 13.9829 73.3539 13.0766V12.7952L77.2754 10.5726L77.8408 10.3557C81.2511 12.9023 84.2355 15.9608 86.6852 19.4198C87.3575 19.4198 87.9191 19.6479 88.4808 19.3739C80.967 8.30534 68.5905 1.18372 55.2102 0.158556L55.1511 0.263923L55.0368 0.158556C53.5265 -0.00135506 51.6706 -0.0645756 50.0485 0.0953353C49.4341 0.0482297 48.7078 0.0953352 47.9778 0.158556C34.5371 1.18372 22.1595 7.9756 14.4258 19.5375C14.9862 19.4855 15.6584 19.7061 16.22 19.4855ZM39.4689 14.7142L39.2452 14.7613C36.9458 14.17 34.703 13.4572 32.5745 12.5374L32.6826 12.2114C35.7635 9.33422 39.0115 6.94299 42.5963 5.10092C43.4406 5.42694 44.28 5.69594 45.1193 6.08146L44.9547 6.50541C42.8224 9.11852 41.1463 11.9362 39.4689 14.7142ZM50.6114 16.1757C49.0471 16.3926 47.6461 16.1273 46.0717 16.0071C44.5664 15.7889 42.6578 15.6315 41.1463 15.1356C42.7709 12.163 44.6783 9.27968 46.9726 6.62565L50.5586 7.10786C50.7245 9.92676 50.6114 13.187 50.6114 16.1757ZM52.3466 16.2339C52.2361 13.3469 52.2939 10.1474 52.3466 7.15993C53.4712 7.00125 54.6975 6.83267 55.8208 6.67276C58.0046 9.3838 60.1381 12.163 61.5956 15.1356C58.567 15.8586 55.4626 16.2272 52.3466 16.2339ZM70.2202 12.4271C68.0314 13.3456 65.7886 14.2158 63.3836 14.7142C61.6484 11.8358 59.7448 8.95861 57.6101 6.17815C58.3954 5.75296 59.3528 5.42694 60.1909 4.99431C63.8385 6.78432 67.3629 9.33422 70.3283 12.2572L70.2202 12.4271ZM63.0456 3.14232C67.7512 4.33979 72.1766 6.40004 76.2099 9.22389L76.0981 9.44083L72.2369 11.5556H71.9516C68.9876 8.63383 65.5159 6.08146 61.9826 4.06708C62.0945 3.68651 62.6574 3.41256 63.0456 3.14232ZM60.8078 2.59689V2.71217C55.9314 6.17815 48.0356 6.50541 42.8853 3.30099C42.5963 3.08406 42.0434 2.97869 41.9831 2.59813C47.9238 1.24694 54.9212 1.13786 60.8078 2.59689ZM26.6376 9.33422C30.1696 6.78432 34.0886 4.88399 38.235 3.57991C38.4046 3.41008 38.5127 3.25017 38.7338 3.25017V3.36173C39.1811 3.46834 39.5191 2.97621 39.9099 3.29851C40.2479 3.57991 40.6437 3.79436 40.9201 4.0646C37.4497 6.17815 34.0308 8.68094 30.8933 11.7155C29.3805 11.1825 27.9858 10.3631 26.6363 9.44083L26.6376 9.33422ZM50.6692 52.7692C45.4045 54.1837 39.6875 53.1052 35.8803 49.1892C35.4343 48.6463 35.1516 47.9992 34.7017 47.4587L27.1427 47.5108C27.0233 51.9077 26.9706 56.9592 27.1427 61.3053L35.5411 61.252L35.6529 58.6438C36.6091 59.0777 37.5628 59.6194 38.5127 60.1066C44.3378 62.499 51.8365 63.042 57.6076 60.1066C61.8118 57.8318 64.0533 53.4349 63.4352 48.7008C62.822 44.0907 58.3388 39.907 53.8054 38.7702L40.2466 34.9113L39.244 34.4204C38.7954 34.0435 38.5139 33.5576 38.6232 32.9552C39.6875 31.1676 42.1552 31.7106 44.0035 31.7589C47.9238 32.3031 51.9559 33.606 54.254 37.1376C56.7154 37.1376 59.5714 37.1847 62.2578 37.0806C62.3722 32.6291 62.2138 28.7219 62.1473 24.2134C59.6267 24.1563 56.5446 24.1563 54.0278 24.2704C53.9147 24.9162 54.1359 25.836 53.8557 26.4906L51.2811 25.1319C45.1168 22.5808 36.4897 22.3143 30.8908 26.2786C27.2482 28.8805 26.1312 33.5551 27.0836 37.6806C27.8086 41.5842 31.6171 44.465 35.2596 45.8187C40.2441 47.5542 45.451 48.8111 50.5008 50.4921C51.0009 50.7127 51.6719 51.2048 51.5638 51.8011C51.5663 52.2833 51.0587 52.5622 50.6692 52.7692Z" fill="#0398CC"/>
</svg>
