<svg width="46" height="36" viewBox="0 0 46 36" fill="none" xmlns="http://www.w3.org/2000/svg">
<path d="M4.49221 27.4401C4.54212 18.7947 4.59079 10.1618 4.63821 1.54131C4.64024 1.26388 4.73875 0.995747 4.91694 0.782668C5.09512 0.569589 5.34193 0.424768 5.61526 0.372917C8.75979 -0.280339 13.7162 -0.116091 17.0816 1.17176C19.4515 2.02512 21.529 3.53348 23.0711 5.52057C24.6627 3.6286 26.7297 2.19222 29.0607 1.3584C32.239 0.148944 37.0606 -0.142222 40.5158 0.372917C40.801 0.411472 41.0628 0.551148 41.2532 0.766387C41.4436 0.981626 41.55 1.25804 41.5528 1.54504V27.5484C41.5523 27.706 41.5206 27.8621 41.4595 28.0075C41.3984 28.1529 41.3092 28.2849 41.1968 28.3959C41.0845 28.5069 40.9513 28.5946 40.8049 28.6542C40.6585 28.7137 40.5017 28.7439 40.3436 28.7429C40.2503 28.7416 40.1575 28.7303 40.0666 28.7093C37.1159 28.3275 34.1169 28.6068 31.2881 29.5268C29.1983 30.3035 27.2149 31.3395 25.3846 32.6102C27.9584 31.8137 30.6411 31.4233 33.3358 31.453C36.7936 31.5078 40.2348 31.9435 43.5967 32.752V5.53924H44.7984C45.1171 5.53924 45.4227 5.66548 45.6481 5.8902C45.8734 6.11492 46 6.4197 46 6.7375V34.3198C46 34.6376 45.8734 34.9424 45.6481 35.1671C45.4227 35.3918 45.1171 35.5181 44.7984 35.5181C44.671 35.517 44.5446 35.4956 44.424 35.4546C40.8026 34.4616 37.072 33.9187 33.3171 33.8383C29.9987 33.7965 26.7101 34.4662 23.6739 35.8018C23.4702 35.931 23.2339 35.9996 22.9925 35.9996C22.7512 35.9996 22.5148 35.931 22.3112 35.8018C19.275 34.4658 15.9864 33.7962 12.668 33.8383C8.92152 33.9233 5.19986 34.4687 1.58726 35.4621C1.46669 35.5031 1.3403 35.5245 1.21291 35.5255C1.05354 35.527 0.895452 35.4969 0.747868 35.4369C0.600284 35.3769 0.466149 35.2882 0.353272 35.1759C0.240396 35.0637 0.151033 34.9303 0.0903867 34.7833C0.0297408 34.6363 -0.000976392 34.4788 2.36557e-05 34.3198V6.7375C2.36557e-05 6.4197 0.126627 6.11492 0.351982 5.8902C0.577337 5.66548 0.882984 5.53924 1.20168 5.53924H2.40334V32.752C5.76523 31.9435 9.20641 31.5078 12.6642 31.453C15.5529 31.4189 18.4268 31.8694 21.1657 32.7856C19.4357 31.3902 17.464 30.3224 15.3483 29.635C12.7279 28.7765 8.72984 28.489 5.80618 28.7392C5.64766 28.7545 5.48767 28.7383 5.33549 28.6915C5.1833 28.6447 5.04197 28.5682 4.91971 28.4664C4.79745 28.3646 4.6967 28.2397 4.62331 28.0987C4.54992 27.9578 4.50535 27.8037 4.49221 27.6454C4.48843 27.577 4.48843 27.5085 4.49221 27.4401ZM27.5671 24.0394C27.4727 24.1096 27.3648 24.1597 27.2502 24.1866C27.1356 24.2135 27.0167 24.2167 26.9008 24.196C26.785 24.1753 26.6746 24.1311 26.5765 24.0662C26.4784 24.0013 26.3947 23.917 26.3306 23.8185C26.2665 23.72 26.2233 23.6095 26.2037 23.4938C26.1841 23.378 26.1885 23.2595 26.2167 23.1455C26.2449 23.0315 26.2962 22.9245 26.3675 22.831C26.4388 22.7376 26.5285 22.6598 26.6312 22.6023C28.0124 21.7472 29.4967 21.0699 31.0485 20.5865C32.6232 20.055 34.2578 19.7202 35.9151 19.5898C36.0276 19.5837 36.1403 19.5998 36.2467 19.6371C36.353 19.6744 36.451 19.7322 36.5349 19.8072C36.6189 19.8823 36.6872 19.9731 36.736 20.0744C36.7847 20.1758 36.813 20.2858 36.8191 20.398C36.8253 20.5103 36.8092 20.6226 36.7718 20.7287C36.7344 20.8348 36.6764 20.9324 36.6011 21.0161C36.5259 21.0998 36.4348 21.168 36.3331 21.2166C36.2315 21.2652 36.1212 21.2934 36.0086 21.2995C34.5054 21.425 33.0232 21.7334 31.5951 22.2178C30.1805 22.6526 28.827 23.2647 27.5671 24.0394ZM27.6419 17.4098C27.4498 17.5316 27.2171 17.5723 26.9949 17.5229C26.7727 17.4736 26.5793 17.3382 26.4571 17.1467C26.335 16.9551 26.2942 16.723 26.3437 16.5014C26.3932 16.2799 26.5289 16.087 26.721 15.9652C28.0994 15.129 29.5754 14.4646 31.1159 13.9868C32.6653 13.4696 34.2716 13.1412 35.9001 13.0088C36.1228 13.0049 36.3384 13.0874 36.5015 13.2388C36.6646 13.3901 36.7624 13.5987 36.7746 13.8205C36.7867 14.0423 36.7121 14.2602 36.5665 14.4284C36.4208 14.5965 36.2155 14.7018 35.9937 14.7221C34.5115 14.8448 33.0497 15.1456 31.64 15.618C30.239 16.0504 28.8963 16.6521 27.6419 17.4098ZM27.6644 10.8026C27.5688 10.8629 27.4622 10.9038 27.3507 10.9231C27.2392 10.9423 27.1251 10.9394 27.0147 10.9146C26.9043 10.8898 26.7999 10.8436 26.7075 10.7786C26.615 10.7136 26.5363 10.6311 26.4759 10.5357C26.4154 10.4404 26.3743 10.3341 26.3551 10.2229C26.3358 10.1118 26.3387 9.99789 26.3635 9.88784C26.3884 9.77778 26.4347 9.67369 26.4999 9.58149C26.5651 9.4893 26.6479 9.41082 26.7435 9.35052C28.1197 8.51823 29.5932 7.85755 31.1309 7.38329C32.6753 6.86837 34.2768 6.54247 35.9001 6.41273C36.0127 6.40661 36.1253 6.42265 36.2317 6.45995C36.3381 6.49725 36.436 6.55507 36.52 6.63011C36.6039 6.70516 36.6722 6.79596 36.721 6.89733C36.7697 6.9987 36.798 7.10865 36.8041 7.2209C36.8103 7.33316 36.7942 7.44553 36.7568 7.55159C36.7194 7.65764 36.6614 7.75532 36.5861 7.83903C36.5109 7.92274 36.4198 7.99085 36.3182 8.03947C36.2165 8.08809 36.1063 8.11627 35.9937 8.1224C34.5168 8.24517 33.0601 8.54471 31.655 9.01456C30.2566 9.44596 28.9164 10.0464 27.6644 10.8026ZM19.3688 22.6023C19.4715 22.6598 19.5612 22.7376 19.6325 22.831C19.7038 22.9245 19.7551 23.0315 19.7833 23.1455C19.8115 23.2595 19.8159 23.378 19.7963 23.4938C19.7768 23.6095 19.7336 23.72 19.6695 23.8185C19.6053 23.917 19.5217 24.0013 19.4236 24.0662C19.3255 24.1311 19.2151 24.1753 19.0992 24.196C18.9833 24.2167 18.8644 24.2135 18.7498 24.1866C18.6352 24.1597 18.5274 24.1096 18.433 24.0394C17.1777 23.2659 15.8293 22.6538 14.4199 22.2178C12.9918 21.7334 11.5096 21.425 10.0064 21.2995C9.89379 21.2929 9.78363 21.2642 9.68216 21.2151C9.58069 21.1661 9.48991 21.0976 9.415 21.0135C9.34009 20.9294 9.28251 20.8315 9.24556 20.7252C9.20861 20.619 9.19301 20.5065 9.19965 20.3943C9.20629 20.282 9.23503 20.1722 9.28424 20.071C9.33346 19.9698 9.40217 19.8793 9.48647 19.8046C9.57077 19.7299 9.66899 19.6725 9.77554 19.6356C9.88209 19.5988 9.99487 19.5832 10.1074 19.5898C11.7647 19.7202 13.3993 20.055 14.974 20.5865C16.5258 21.0699 18.0101 21.7472 19.3913 22.6023H19.3688ZM19.279 15.9652C19.4711 16.089 19.6061 16.2837 19.6541 16.5067C19.7022 16.7297 19.6595 16.9626 19.5354 17.1541C19.4113 17.3457 19.216 17.4803 18.9924 17.5282C18.7688 17.5762 18.5352 17.5336 18.3431 17.4098C17.0888 16.6521 15.7461 16.0504 14.3451 15.618C12.9354 15.1456 11.4735 14.8448 9.9914 14.7221C9.76354 14.7068 9.55113 14.6018 9.40089 14.4303C9.25066 14.2588 9.1749 14.0348 9.19029 13.8076C9.20568 13.5804 9.31095 13.3686 9.48295 13.2188C9.65495 13.069 9.87959 12.9934 10.1074 13.0088C11.7359 13.1412 13.3423 13.4696 14.8916 13.9868C16.4322 14.4646 17.9081 15.129 19.2865 15.9652H19.279ZM19.2565 9.35052C19.3595 9.40672 19.4498 9.48332 19.522 9.57561C19.5942 9.66789 19.6467 9.77392 19.6762 9.88717C19.7058 10.0004 19.7119 10.1185 19.694 10.2342C19.6762 10.3499 19.6348 10.4607 19.5724 10.5598C19.5101 10.659 19.428 10.7443 19.3314 10.8107C19.2347 10.8771 19.1255 10.9231 19.0103 10.9458C18.8952 10.9685 18.7766 10.9676 18.6619 10.9429C18.5472 10.9183 18.4387 10.8706 18.3431 10.8026C17.0911 10.0464 15.7509 9.44596 14.3526 9.01456C12.9474 8.54471 11.4907 8.24517 10.0139 8.1224C9.90128 8.11627 9.79102 8.08809 9.68936 8.03947C9.5877 7.99085 9.49665 7.92274 9.42139 7.83903C9.34613 7.75532 9.28814 7.65764 9.25074 7.55159C9.21334 7.44553 9.19725 7.33316 9.20339 7.2209C9.20954 7.10865 9.2378 6.9987 9.28655 6.89733C9.33531 6.79596 9.40362 6.70516 9.48757 6.63011C9.57152 6.55507 9.66947 6.49725 9.77582 6.45995C9.88218 6.42265 9.99487 6.40661 10.1074 6.41273C11.7307 6.54247 13.3322 6.86837 14.8767 7.38329C16.4143 7.85755 17.8878 8.51823 19.264 9.35052H19.2565ZM39.1419 2.61265C36.3643 2.35135 32.3812 2.65745 29.8843 3.60187C27.5631 4.41325 25.5733 5.96206 24.2204 8.01041V30.5048C26.1658 29.1752 28.268 28.0895 30.4795 27.2721C33.2747 26.3794 36.2127 26.016 39.1419 26.2008V2.61265ZM21.8171 30.2734V7.97682C20.5593 5.76321 18.5266 4.28499 16.2281 3.40776C13.6076 2.41108 9.58336 2.1871 7.03404 2.54919L6.89927 26.2754C9.68069 26.1747 13.5215 26.5293 16.0783 27.3617C18.1327 28.0258 20.0693 29.0084 21.8171 30.2734Z" fill="#999999"/>
</svg>
