<svg width="64" height="64" viewBox="0 0 64 64" fill="none" xmlns="http://www.w3.org/2000/svg">
<path d="M59.0783 10.33V59.08C59.0763 60.3849 58.5568 61.6357 57.6337 62.5581C56.7107 63.4805 55.4594 63.999 54.1545 64H16.4108C15.1057 63.9987 13.8544 63.4796 12.9315 62.5568C12.0086 61.6339 11.4896 60.3826 11.4883 59.0775V4.9225C11.4896 3.61738 12.0086 2.36609 12.9315 1.44323C13.8544 0.520368 15.1057 0.00132365 16.4108 0L48.7508 0L59.0783 10.33Z" fill="#DAE2F2"/>
<path d="M32.8215 45.9487H21.334V54.1537H32.8215V45.9487Z" fill="#F7818F"/>
<path d="M36.9234 11.4874H22.1546C21.937 11.4874 21.7282 11.401 21.5743 11.2471C21.4204 11.0932 21.334 10.8845 21.334 10.6668C21.334 10.4492 21.4204 10.2404 21.5743 10.0865C21.7282 9.93265 21.937 9.84619 22.1546 9.84619H36.9234C37.141 9.84619 37.3497 9.93265 37.5036 10.0865C37.6575 10.2404 37.744 10.4492 37.744 10.6668C37.744 10.8845 37.6575 11.0932 37.5036 11.2471C37.3497 11.401 37.141 11.4874 36.9234 11.4874Z" fill="#9FAFBF"/>
<path d="M48.4109 21.3336H22.1546C21.937 21.3336 21.7282 21.2472 21.5743 21.0933C21.4204 20.9394 21.334 20.7307 21.334 20.513C21.334 20.2954 21.4204 20.0866 21.5743 19.9327C21.7282 19.7788 21.937 19.6924 22.1546 19.6924H48.4109C48.6285 19.6924 48.8372 19.7788 48.9911 19.9327C49.145 20.0866 49.2315 20.2954 49.2315 20.513C49.2315 20.7307 49.145 20.9394 48.9911 21.0933C48.8372 21.2472 48.6285 21.3336 48.4109 21.3336Z" fill="#9FAFBF"/>
<path d="M32.0009 27.8976H22.1546C21.937 27.8976 21.7282 27.8111 21.5743 27.6572C21.4204 27.5033 21.334 27.2946 21.334 27.077C21.334 26.8593 21.4204 26.6506 21.5743 26.4967C21.7282 26.3428 21.937 26.2563 22.1546 26.2563H32.0009C32.2185 26.2563 32.4272 26.3428 32.5811 26.4967C32.735 26.6506 32.8215 26.8593 32.8215 27.077C32.8215 27.2946 32.735 27.5033 32.5811 27.6572C32.4272 27.8111 32.2185 27.8976 32.0009 27.8976Z" fill="#9FAFBF"/>
<path d="M48.4091 27.8976H38.5628C38.3452 27.8976 38.1364 27.8111 37.9825 27.6572C37.8286 27.5033 37.7422 27.2946 37.7422 27.077C37.7422 26.8593 37.8286 26.6506 37.9825 26.4967C38.1364 26.3428 38.3452 26.2563 38.5628 26.2563H48.4091C48.6267 26.2563 48.8354 26.3428 48.9893 26.4967C49.1432 26.6506 49.2297 26.8593 49.2297 27.077C49.2297 27.2946 49.1432 27.5033 48.9893 27.6572C48.8354 27.8111 48.6267 27.8976 48.4091 27.8976Z" fill="#9FAFBF"/>
<path d="M32.0009 34.4616H22.1546C21.937 34.4616 21.7282 34.3751 21.5743 34.2212C21.4204 34.0673 21.334 33.8586 21.334 33.6409C21.334 33.4233 21.4204 33.2146 21.5743 33.0607C21.7282 32.9068 21.937 32.8203 22.1546 32.8203H32.0009C32.2185 32.8203 32.4272 32.9068 32.5811 33.0607C32.735 33.2146 32.8215 33.4233 32.8215 33.6409C32.8215 33.8586 32.735 34.0673 32.5811 34.2212C32.4272 34.3751 32.2185 34.4616 32.0009 34.4616Z" fill="#9FAFBF"/>
<path d="M48.4091 34.4616H38.5628C38.3452 34.4616 38.1364 34.3751 37.9825 34.2212C37.8286 34.0673 37.7422 33.8586 37.7422 33.6409C37.7422 33.4233 37.8286 33.2146 37.9825 33.0607C38.1364 32.9068 38.3452 32.8203 38.5628 32.8203H48.4091C48.6267 32.8203 48.8354 32.9068 48.9893 33.0607C49.1432 33.2146 49.2297 33.4233 49.2297 33.6409C49.2297 33.8586 49.1432 34.0673 48.9893 34.2212C48.8354 34.3751 48.6267 34.4616 48.4091 34.4616Z" fill="#9FAFBF"/>
<path d="M48.4109 41.0263H22.1546C21.937 41.0263 21.7282 40.9398 21.5743 40.7859C21.4204 40.632 21.334 40.4233 21.334 40.2056C21.334 39.988 21.4204 39.7793 21.5743 39.6254C21.7282 39.4715 21.937 39.385 22.1546 39.385H48.4109C48.6285 39.385 48.8372 39.4715 48.9911 39.6254C49.145 39.7793 49.2315 39.988 49.2315 40.2056C49.2315 40.4233 49.145 40.632 48.9911 40.7859C48.8372 40.9398 48.6285 41.0263 48.4109 41.0263Z" fill="#9FAFBF"/>
<path d="M48.4091 47.59H38.5628C38.3452 47.59 38.1364 47.5035 37.9825 47.3496C37.8286 47.1957 37.7422 46.987 37.7422 46.7694C37.7422 46.5517 37.8286 46.343 37.9825 46.1891C38.1364 46.0352 38.3452 45.9487 38.5628 45.9487H48.4091C48.6267 45.9487 48.8354 46.0352 48.9893 46.1891C49.1432 46.343 49.2297 46.5517 49.2297 46.7694C49.2297 46.987 49.1432 47.1957 48.9893 47.3496C48.8354 47.5035 48.6267 47.59 48.4091 47.59Z" fill="#9FAFBF"/>
<path d="M48.4091 54.1537H38.5628C38.3452 54.1537 38.1364 54.0672 37.9825 53.9133C37.8286 53.7594 37.7422 53.5507 37.7422 53.3331C37.7422 53.1154 37.8286 52.9067 37.9825 52.7528C38.1364 52.5989 38.3452 52.5125 38.5628 52.5125H48.4091C48.6267 52.5125 48.8354 52.5989 48.9893 52.7528C49.1432 52.9067 49.2297 53.1154 49.2297 53.3331C49.2297 53.5507 49.1432 53.7594 48.9893 53.9133C48.8354 54.0672 48.6267 54.1537 48.4091 54.1537Z" fill="#9FAFBF"/>
<path d="M11.4869 59.0775V4.9225C11.4885 3.61748 12.0077 2.36638 12.9305 1.44359C13.8533 0.520804 15.1044 0.00165381 16.4094 0L9.84562 0C8.54039 0.00132306 7.28897 0.520327 6.36591 1.44315C5.44285 2.36598 4.92353 3.61726 4.92188 4.9225V59.0775C4.92353 60.3827 5.44285 61.634 6.36591 62.5568C7.28897 63.4797 8.54039 63.9987 9.84562 64H16.4094C15.1044 63.9983 13.8533 63.4792 12.9305 62.5564C12.0077 61.6336 11.4885 60.3825 11.4869 59.0775Z" fill="#B6C3D3"/>
<path d="M59.0784 10.33V10.6663H49.2321C49.0148 10.6656 48.8066 10.579 48.653 10.4253C48.4994 10.2717 48.4128 10.0635 48.4121 9.84625V0H48.7509L59.0784 10.33Z" fill="#B6C3D3"/>
<g opacity="0.06">
<path d="M59.078 10.33V59.08C59.0761 60.3849 58.5565 61.6357 57.6335 62.5581C56.7104 63.4805 55.4592 63.999 54.1543 64H35.2793V0H48.7505L59.078 10.33Z" fill="black"/>
</g>
</svg>
