<svg width="21" height="24" viewBox="0 0 21 24" fill="none" xmlns="http://www.w3.org/2000/svg">
<path d="M13.1211 10.5C12.7928 10.5 12.4677 10.4418 12.1644 10.3287C11.8611 10.2157 11.5855 10.0499 11.3533 9.84099C11.1212 9.63206 10.937 9.38402 10.8114 9.11104C10.6858 8.83806 10.6211 8.54547 10.6211 8.25C10.6211 7.95453 10.6858 7.66194 10.8114 7.38896C10.937 7.11598 11.1212 6.86794 11.3533 6.65901C11.5855 6.45008 11.8611 6.28434 12.1644 6.17127C12.4677 6.0582 12.7928 6 13.1211 6C13.7841 6 14.42 6.23705 14.8889 6.65901C15.3577 7.08097 15.6211 7.65326 15.6211 8.25C15.6211 8.84674 15.3577 9.41903 14.8889 9.84099C14.42 10.2629 13.7841 10.5 13.1211 10.5Z" fill="#3C77A2"/>
<path d="M0.625 21C0.625 21.7956 0.976191 22.5587 1.60131 23.1213C2.22643 23.6839 3.07428 24 3.95833 24H17.2917C18.1757 24 19.0236 23.6839 19.6487 23.1213C20.2738 22.5587 20.625 21.7956 20.625 21V3C20.625 2.20435 20.2738 1.44129 19.6487 0.87868C19.0236 0.316071 18.1757 0 17.2917 0L8.125 0L0.625 6.75V21ZM17.2917 1.5C17.7337 1.5 18.1576 1.65804 18.4702 1.93934C18.7827 2.22064 18.9583 2.60218 18.9583 3V18L15.2517 14.664C15.1203 14.5461 14.949 14.4709 14.7648 14.4506C14.5806 14.4302 14.3942 14.4657 14.235 14.5515L10.625 16.5L7.03 11.97C6.95966 11.8815 6.86874 11.8078 6.76358 11.754C6.65841 11.7003 6.5415 11.6678 6.42098 11.6588C6.30045 11.6498 6.1792 11.6645 6.06563 11.702C5.95207 11.7394 5.84892 11.7986 5.76333 11.8755L2.29167 15V6.75H5.625C6.28804 6.75 6.92393 6.51295 7.39277 6.09099C7.86161 5.66903 8.125 5.09674 8.125 4.5V1.5H17.2917Z" fill="#3C77A2"/>
</svg>
