<svg width="48" height="48" viewBox="0 0 48 48" fill="none" xmlns="http://www.w3.org/2000/svg">
<rect x="0.5" y="0.5" width="47" height="47" rx="23.5" fill="#F6F8FC"/>
<path d="M24 28C28.4183 28 32 24.4183 32 20C32 15.5817 28.4183 12 24 12C19.5817 12 16 15.5817 16 20C16 24.4183 19.5817 28 24 28Z" stroke="#999999" stroke-width="1.5" stroke-linecap="round" stroke-linejoin="round"/>
<path d="M11.874 34.9988C13.1035 32.8708 14.8713 31.1037 16.9999 29.8752C19.1285 28.6467 21.5429 28 24.0005 28C26.4582 28 28.8726 28.6468 31.0012 29.8754C33.1297 31.1039 34.8975 32.871 36.1269 34.9991" stroke="#999999" stroke-width="1.5" stroke-linecap="round" stroke-linejoin="round"/>
<rect x="0.5" y="0.5" width="47" height="47" rx="23.5" stroke="#999999"/>
</svg>
