<svg width="64" height="64" viewBox="0 0 64 64" fill="none" xmlns="http://www.w3.org/2000/svg">
<g filter="url(#filter0_b_1044_34600)">
<circle cx="31.9994" cy="31.9994" r="29.5385" fill="#D9D9D9" fill-opacity="0.5"/>
</g>
<circle cx="32" cy="32" r="31.5" stroke="white"/>
<path d="M55.5391 28.5353C58.2057 30.0749 58.2057 33.9239 55.5391 35.4635L23.2314 54.1164C20.5647 55.656 17.2314 53.7315 17.2314 50.6523L17.2314 13.3465C17.2314 10.2673 20.5647 8.34284 23.2314 9.88244L55.5391 28.5353Z" fill="white"/>
<path d="M43.5684 31.0773C44.235 31.4622 44.235 32.4244 43.5684 32.8093L26.8839 42.4421C26.2172 42.827 25.3839 42.3459 25.3839 41.5761L25.3839 22.3105C25.3839 21.5407 26.2172 21.0596 26.8839 21.4445L43.5684 31.0773Z" fill="#828282"/>
<defs>
<filter id="filter0_b_1044_34600" x="1.46094" y="1.46094" width="61.0771" height="61.0762" filterUnits="userSpaceOnUse" color-interpolation-filters="sRGB">
<feFlood flood-opacity="0" result="BackgroundImageFix"/>
<feGaussianBlur in="BackgroundImageFix" stdDeviation="0.5"/>
<feComposite in2="SourceAlpha" operator="in" result="effect1_backgroundBlur_1044_34600"/>
<feBlend mode="normal" in="SourceGraphic" in2="effect1_backgroundBlur_1044_34600" result="shape"/>
</filter>
</defs>
</svg>
