<svg width="32" height="32" viewBox="0 0 32 32" fill="none" xmlns="http://www.w3.org/2000/svg">
<path d="M2 12H30V28C30 28.5523 29.5523 29 29 29H3C2.44771 29 2 28.5523 2 28V12Z" fill="#C2EFDF"/>
<path d="M2 11H30V6C30 5.44772 29.5523 5 29 5H3C2.44771 5 2 5.44772 2 6V11Z" fill="#57EAB5"/>
<rect x="2" y="11" width="28.0485" height="0.96719" fill="white"/>
<path d="M6 3.75C6 3.33579 6.33579 3 6.75 3C7.16421 3 7.5 3.33579 7.5 3.75V7H6V3.75Z" fill="#8F8F8F"/>
<path d="M12 3.75C12 3.33579 12.3358 3 12.75 3C13.1642 3 13.5 3.33579 13.5 3.75V7H12V3.75Z" fill="#8F8F8F"/>
<path d="M18 3.75C18 3.33579 18.3358 3 18.75 3C19.1642 3 19.5 3.33579 19.5 3.75V7H18V3.75Z" fill="#8F8F8F"/>
<path d="M24 3.75C24 3.33579 24.3358 3 24.75 3C25.1642 3 25.5 3.33579 25.5 3.75V7H24V3.75Z" fill="#8F8F8F"/>
<path d="M10 16H14.426L11.8969 19.1615C12.3127 19.1615 12.7222 19.264 13.0889 19.46C13.4557 19.656 13.7685 19.9394 13.9996 20.2852C14.2307 20.6309 14.3729 21.0283 14.4138 21.4421C14.4547 21.856 14.3928 22.2735 14.2338 22.6578C14.0748 23.042 13.8235 23.3811 13.5021 23.6451C13.1807 23.909 12.7993 24.0896 12.3914 24.171C11.9836 24.2523 11.562 24.2318 11.164 24.1113C10.766 23.9908 10.4038 23.774 10.1096 23.4801" stroke="#8F8F8F" stroke-width="1.5" stroke-linecap="round" stroke-linejoin="round"/>
<path d="M18.2188 17.8969L20.7479 16V24.2198" stroke="#8F8F8F" stroke-width="1.5" stroke-linecap="round" stroke-linejoin="round"/>
</svg>
