<svg width="32" height="32" viewBox="0 0 32 32" fill="none" xmlns="http://www.w3.org/2000/svg">
<path d="M6.84615 4H25.1538L30 17.0909H2L6.84615 4Z" fill="#D6A834"/>
<rect x="8.15" y="8.15" width="15.7" height="9.7" fill="#F0F0F0" stroke="#C7C7C7" stroke-width="0.3"/>
<rect x="6.45859" y="12.7867" width="19.0846" height="10.6091" fill="#F9F9F9" stroke="#C7C7C7" stroke-width="0.3"/>
<rect x="2" y="17.0908" width="28" height="10.9091" fill="#F9BB1C"/>
<path d="M22.4621 17.0913C22.4621 17.8076 22.295 18.5169 21.9703 19.1786C21.6456 19.8404 21.1696 20.4417 20.5696 20.9482C19.9696 21.4547 19.2573 21.8565 18.4733 22.1306C17.6894 22.4047 16.8491 22.5458 16.0006 22.5458C15.1521 22.5458 14.3118 22.4047 13.5279 22.1306C12.7439 21.8565 12.0316 21.4547 11.4316 20.9482C10.8316 20.4417 10.3556 19.8404 10.0309 19.1786C9.70619 18.5169 9.53906 17.8076 9.53906 17.0913L16.0006 17.0913H22.4621Z" fill="#F9F9F9"/>
</svg>
