<svg width="32" height="32" viewBox="0 0 32 32" fill="none" xmlns="http://www.w3.org/2000/svg">
<path d="M23.5024 24.5294L29 29V11.1176C29 10.8212 28.8829 10.537 28.6746 10.3274C28.4662 10.1178 28.1836 10 27.8889 10H10.1111C9.81643 10 9.53381 10.1178 9.32544 10.3274C9.11706 10.537 9 10.8212 9 11.1176V23.4118C9 23.7082 9.11706 23.9925 9.32544 24.2021C9.53381 24.4117 9.81643 24.5294 10.1111 24.5294H23.5024Z" fill="#65C0FF" fill-opacity="0.5"/>
<path d="M8.49763 18.5294L3 23V5.11765C3 4.82123 3.11706 4.53695 3.32544 4.32735C3.53381 4.11775 3.81643 4 4.11111 4H21.8889C22.1836 4 22.4662 4.11775 22.6746 4.32735C22.8829 4.53695 23 4.82123 23 5.11765V17.4118C23 17.7082 22.8829 17.9925 22.6746 18.2021C22.4662 18.4117 22.1836 18.5294 21.8889 18.5294H8.49763Z" fill="#53B9FF"/>
</svg>
