<svg width="32" height="32" viewBox="0 0 32 32" fill="none" xmlns="http://www.w3.org/2000/svg">
<path d="M3.50391 8.00098H28.5039V29.001C28.5039 29.5533 28.0562 30.001 27.5039 30.001H4.50391C3.95162 30.001 3.50391 29.5533 3.50391 29.001V8.00098Z" fill="#F9D8FF"/>
<path d="M3.50391 4.00098C3.50391 3.44869 3.95162 3.00098 4.50391 3.00098H27.5039C28.0562 3.00098 28.5039 3.44869 28.5039 4.00098V8.00098H3.50391V4.00098Z" fill="#F4B1FF"/>
<path d="M9.25391 4.77832V5.52832H7.75391V4.77832H9.25391ZM7.75391 2.00098C7.75391 1.58676 8.08969 1.25098 8.50391 1.25098C8.91812 1.25098 9.25391 1.58676 9.25391 2.00098H7.75391ZM7.75391 4.77832V2.00098H9.25391V4.77832H7.75391Z" fill="#8F8F8F"/>
<path d="M16.7539 4.77832V5.52832H15.2539V4.77832H16.7539ZM15.2539 2.00098C15.2539 1.58676 15.5897 1.25098 16.0039 1.25098C16.4181 1.25098 16.7539 1.58676 16.7539 2.00098H15.2539ZM15.2539 4.77832V2.00098H16.7539V4.77832H15.2539Z" fill="#8F8F8F"/>
<path d="M24.2539 4.77832V5.52832H22.7539V4.77832H24.2539ZM22.7539 2.00098C22.7539 1.58676 23.0897 1.25098 23.5039 1.25098C23.9181 1.25098 24.2539 1.58676 24.2539 2.00098H22.7539ZM22.7539 4.77832V2.00098H24.2539V4.77832H22.7539Z" fill="#8F8F8F"/>
<rect x="3.50391" y="8.00098" width="25" height="1" fill="white"/>
<path d="M8 14H24" stroke="#8F8F8F" stroke-linecap="round" stroke-linejoin="round"/>
<path d="M8 19H24" stroke="#8F8F8F" stroke-linecap="round" stroke-linejoin="round"/>
<path d="M8 24H24" stroke="#8F8F8F" stroke-linecap="round" stroke-linejoin="round"/>
</svg>
