<svg width="24" height="24" viewBox="0 0 24 24" fill="none" xmlns="http://www.w3.org/2000/svg">
<path d="M19.29 5.73047L21.29 9.06046C21.5654 9.57611 21.7224 10.1466 21.75 10.7305V17.9605C21.7447 18.964 21.3438 19.925 20.6342 20.6346C19.9245 21.3442 18.9636 21.7452 17.96 21.7505H6.04004C5.03649 21.7452 4.07553 21.3442 3.36591 20.6346C2.65628 19.925 2.25525 18.964 2.25 17.9605V10.7305C2.27755 10.1466 2.4347 9.57611 2.71002 9.06046L4.71002 5.73047" stroke="#2CA6FF" stroke-width="1.5" stroke-miterlimit="10" stroke-linecap="round"/>
<path d="M2.25 10.9219L6.66003 11.8019C6.95478 11.8782 7.22514 12.0285 7.44562 12.2385C7.6661 12.4484 7.82935 12.7112 7.91998 13.0019L8.23999 14.2819C8.40569 14.8556 8.74808 15.3626 9.21844 15.7307C9.68881 16.0987 10.2632 16.3091 10.86 16.3319H13.14C13.7368 16.3091 14.3113 16.0987 14.7816 15.7307C15.252 15.3626 15.5943 14.8556 15.76 14.2819L16.08 13.0019C16.1706 12.7112 16.3339 12.4484 16.5544 12.2385C16.7749 12.0285 17.0453 11.8782 17.34 11.8019L21.75 10.9219" stroke="#2CA6FF" stroke-width="1.5" stroke-miterlimit="10" stroke-linecap="round"/>
<path d="M12 9.84V2.25" stroke="#2CA6FF" stroke-width="1.5" stroke-miterlimit="10" stroke-linecap="round"/>
<path d="M8.75 6.58984L12 9.83984L15.25 6.58984" stroke="#2CA6FF" stroke-width="1.5" stroke-linecap="round" stroke-linejoin="round"/>
</svg>
