<svg width="24" height="24" viewBox="0 0 24 24" fill="none" xmlns="http://www.w3.org/2000/svg">
<path d="M19.29 5.73047L21.29 9.06046C21.5698 9.57428 21.7273 10.1458 21.75 10.7305V17.9605C21.7474 18.9648 21.3472 19.9273 20.637 20.6375C19.9268 21.3477 18.9644 21.7478 17.96 21.7505H6.04999C5.0447 21.7478 4.08123 21.348 3.36945 20.6381C2.65766 19.9282 2.25527 18.9658 2.25 17.9605V10.7305C2.27616 10.1451 2.43702 9.57357 2.72003 9.06046L4.72003 5.73047" stroke="#15B094" stroke-width="1.5" stroke-miterlimit="10" stroke-linecap="round"/>
<path d="M2.25 10.9219L6.66003 11.8019C6.95561 11.8765 7.22688 12.0261 7.44763 12.2364C7.66838 12.4466 7.83108 12.7103 7.91998 13.0019L8.23999 14.2819C8.40948 14.8572 8.75561 15.3648 9.22937 15.7327C9.70313 16.1006 10.2806 16.3102 10.88 16.3319H13.15C13.7473 16.3066 14.3218 16.0955 14.7933 15.728C15.2648 15.3605 15.6098 14.8549 15.78 14.2819L16.1 13.0019C16.188 12.7098 16.3505 12.4456 16.5714 12.2353C16.7922 12.0249 17.064 11.8756 17.36 11.8019L21.5975 10.9544" stroke="#15B094" stroke-width="1.5" stroke-miterlimit="10" stroke-linecap="round"/>
<path d="M12 2.25V10.92" stroke="#15B094" stroke-width="1.5" stroke-miterlimit="10" stroke-linecap="round"/>
<path d="M15.25 5.5L12 2.25L8.75 5.5" stroke="#15B094" stroke-width="1.5" stroke-linecap="round" stroke-linejoin="round"/>
</svg>
